<svg xmlns="http://www.w3.org/2000/svg" viewBox="0 0 512 512" width="512" height="512">
  <rect width="512" height="512" rx="112" fill="#101014"/>
  <g fill="#2fbf71" opacity="0.25">
    <rect x="100" y="100" width="88" height="88" rx="22"/>
    <rect x="212" y="100" width="88" height="88" rx="22"/>
    <rect x="324" y="100" width="88" height="88" rx="22"/>
    <rect x="100" y="212" width="88" height="88" rx="22"/>
    <rect x="212" y="212" width="88" height="88" rx="22"/>
    <rect x="324" y="212" width="88" height="88" rx="22"/>
    <rect x="100" y="324" width="88" height="88" rx="22"/>
    <rect x="212" y="324" width="88" height="88" rx="22"/>
    <rect x="324" y="324" width="88" height="88" rx="22"/>
  </g>
  <polyline points="72,302 158,302 208,184 270,348 322,252 440,252"
    fill="none" stroke="#fafafa" stroke-width="30" stroke-linecap="round" stroke-linejoin="round"/>
</svg>
